Coordinates
version=1
nRows=6
nColumns=36
inDegrees=yes

Units are S.I. units (second, meters, Newtons, ...)
If the header above contains a line with 'inDegrees', this indicates whether rotational values are in degrees (yes) or radians (no).

endheader
time	pelvis_tilt	pelvis_list	pelvis_rotation	pelvis_tx	pelvis_ty	pelvis_tz	hip_flexion_r	hip_adduction_r	hip_rotation_r	knee_angle_r	knee_angle_r_beta	ankle_angle_r	subtalar_angle_r	mtp_angle_r	hip_flexion_l	hip_adduction_l	hip_rotation_l	knee_angle_l	knee_angle_l_beta	ankle_angle_l	subtalar_angle_l	mtp_angle_l	lumbar_extension	lumbar_bending	lumbar_rotation	arm_flex_r	arm_add_r	arm_rot_r	elbow_flex_r	pro_sup_r	arm_flex_l	arm_add_l	arm_rot_l	elbow_flex_l	pro_sup_l
      1.37000000	    -17.41860050	      0.11828996	     -3.84768762	     -0.68914760	      1.32271437	     -0.55640270	     19.54596428	     -1.28195904	     -1.80950987	     40.56172250	      0.70793561	    -33.54974604	    -18.28819758	     -5.34977502	     17.28469703	     -3.68339850	      0.01262823	     37.81126650	      0.65993109	    -38.05410996	    -17.11674888	     -5.34977502	     -2.44977002	     -0.22600820	      1.99706031	    -23.80433016	    -14.68069655	    -19.69188269	     56.25278538	    101.97081660	    -23.47617049	    -16.25950150	    -14.06540825	     60.49849791	    101.74808180
      1.38000000	    -17.35043699	     -0.07488820	     -3.71787797	     -0.67934131	      1.32461984	     -0.55673563	     20.98266738	     -1.21177751	     -1.82303792	     42.36090334	      0.73933724	    -31.46242451	    -18.15038149	     -5.83295134	     18.64174242	     -4.08540140	      0.21246209	     39.51405652	      0.68965039	    -36.60907093	    -18.33776453	     -5.83295134	     -2.90081407	      0.05840619	      1.89200052	    -25.11387072	    -14.58954955	    -21.28160365	     55.63169020	    106.09171245	    -24.46456523	    -15.99512272	    -15.33829054	     59.14582244	    106.96143801
      1.39000000	    -17.26833452	     -0.26993202	     -3.61440487	     -0.66962484	      1.32565436	     -0.55704993	     22.31571464	     -1.13537255	     -1.90027175	     43.62975332	      0.76148285	    -30.56994695	    -18.81892637	     -5.86480835	     19.88252647	     -4.50841732	      0.29913915	     40.72883153	      0.71085221	    -35.68416937	    -19.57901415	     -5.86480835	     -3.42104872	      0.33253704	      1.71306728	    -26.23022735	    -14.57899239	    -22.29044575	     55.02075772	    105.96315536	    -25.54230740	    -15.72520726	    -16.27813707	     58.34733337	    106.89099113
      1.40000000	    -17.11884839	     -0.39909708	     -3.48063387	     -0.65999894	      1.32594315	     -0.55730977	     23.46123093	     -1.14362533	     -2.05644186	     44.37823889	      0.77454638	    -29.77628020	    -19.28673373	     -5.89045906	     20.94751759	     -4.86808082	      0.32395534	     41.44434308	      0.72334024	    -34.90697022	    -20.62426556	     -5.89045906	     -4.07043651	      0.50969708	      1.48831847	    -27.24535137	    -14.43041067	    -23.42618723	     54.32453625	    105.84214348	    -26.54739241	    -15.46597123	    -17.16473825	     57.50297108	    106.81490074
      1.41000000	    -16.89659483	     -0.46957750	     -3.28762328	     -0.65053262	      1.32553322	     -0.55766584	     24.41748984	     -1.26774140	     -2.29865546	     44.64225388	      0.77915432	    -28.99154514	    -19.52406556	     -5.92155020	     21.84646092	     -5.15239217	      0.30845480	     41.67078393	      0.72729238	    -34.17455614	    -21.51808371	     -5.92155020	     -4.86471270	      0.61674220	      1.19894733	    -28.09803643	    -14.11104147	    -24.87877181	     53.54032181	    105.73569368	    -27.43870007	    -15.14727087	    -18.10569693	     56.59222572	    106.76153697
      1.42000000	    -16.55716180	     -0.50364185	     -3.09677438	     -0.64114808	      1.32445411	     -0.55805949	     25.15981095	     -1.50547874	     -2.58322410	     44.48561840	      0.77642051	    -27.83230101	    -19.32294919	     -5.97898534	     22.51079748	     -5.39662255	      0.25378154	     41.42520331	      0.72300619	    -33.47286118	    -21.93319603	     -5.97898534	     -5.83945530	      0.67736440	      0.94462615	    -28.86439607	    -13.67975185	    -26.54438621	     52.76038093	    105.70640002	    -28.21296115	    -14.81555732	    -18.93215224	     55.57595228	    106.66536568
